<?xml version="1.0" standalone="no"?>
<!DOCTYPE svg PUBLIC "-//W3C//DTD SVG 20010904//EN"
 "http://www.w3.org/TR/2001/REC-SVG-20010904/DTD/svg10.dtd">
<svg version="1.0" xmlns="http://www.w3.org/2000/svg"
 width="505.000000pt" height="258.000000pt" viewBox="0 0 505.000000 258.000000"
 preserveAspectRatio="xMidYMid meet">

<g transform="translate(0.000000,258.000000) scale(0.100000,-0.100000)"
fill="#000000" stroke="none">
<path d="M1318 2381 c-241 -53 -424 -149 -582 -309 -87 -88 -103 -110 -150
-202 -42 -83 -60 -158 -53 -225 7 -67 27 -107 74 -142 32 -25 45 -28 109 -28
63 0 77 3 96 22 21 22 21 25 8 55 -9 21 -15 65 -15 118 0 77 4 92 35 155 43
86 167 216 255 267 139 80 279 115 419 104 141 -10 221 -65 252 -173 58 -198
-126 -492 -391 -626 -81 -41 -188 -77 -198 -68 -9 9 87 265 181 486 79 182 80
190 51 221 -46 49 -146 20 -220 -64 -72 -81 -124 -205 -285 -670 -139 -402
-204 -662 -189 -761 5 -32 16 -54 40 -78 30 -30 38 -33 93 -33 65 0 112 13
155 42 l27 20 -6 91 c-7 98 1 170 42 379 30 155 39 181 61 176 24 -5 53 -59
129 -248 171 -423 303 -588 523 -654 191 -56 439 46 530 219 44 83 24 95 -72
46 -68 -35 -72 -36 -186 -36 -109 0 -120 2 -181 31 -86 41 -177 126 -249 234
-59 88 -241 445 -241 472 0 9 33 27 86 48 275 107 509 341 575 575 22 79 17
228 -10 298 -47 119 -137 201 -270 245 -105 35 -314 41 -443 13z"/>
<path d="M3045 2327 c-86 -48 -158 -138 -243 -305 -107 -208 -212 -494 -257
-695 -16 -73 -19 -79 -54 -96 l-37 -19 -1 91 c-2 116 -27 190 -83 241 -94 85
-253 51 -403 -85 -165 -150 -255 -349 -244 -539 6 -103 27 -165 73 -218 112
-132 347 -76 488 117 20 27 58 93 85 148 44 88 54 100 88 113 21 8 41 16 44
18 3 1 4 -43 1 -98 -13 -267 103 -369 302 -268 50 25 189 158 209 201 l15 30
22 -52 c42 -96 145 -161 256 -161 58 0 183 41 243 79 103 66 221 225 221 298
0 42 -26 29 -110 -57 -108 -111 -159 -141 -250 -148 -68 -5 -70 -4 -100 28
-23 24 -30 42 -30 70 0 42 -4 40 93 65 85 22 154 61 219 123 70 66 103 120
124 203 33 127 4 243 -72 287 -33 19 -51 22 -114 20 -113 -5 -191 -45 -300
-156 -124 -126 -189 -263 -206 -431 -6 -70 -8 -72 -53 -110 -113 -93 -166
-111 -209 -71 -18 18 -22 32 -22 89 0 147 6 159 142 300 142 147 218 249 293
393 147 284 159 550 28 613 -48 23 -92 18 -158 -18z m125 -236 c0 -42 -46
-194 -84 -275 -42 -91 -149 -256 -211 -324 -26 -29 -49 -51 -51 -49 -8 7 90
274 136 372 86 184 177 324 202 309 4 -3 8 -18 8 -33z m390 -542 c32 -59 -9
-167 -94 -247 -44 -42 -139 -102 -162 -102 -25 0 63 229 113 294 40 52 95 88
119 79 8 -3 19 -14 24 -24z m-1293 -104 c31 -22 44 -90 33 -177 -13 -104 -15
-109 -51 -96 -63 22 -108 121 -88 193 10 36 57 95 76 95 5 0 18 -7 30 -15z
m-187 -328 c37 -41 51 -51 123 -77 l28 -10 -37 -70 c-53 -101 -107 -141 -169
-126 -37 9 -55 54 -55 138 0 77 16 156 47 223 l18 40 3 -37 c2 -25 15 -50 42
-81z"/>
<path d="M4395 1764 c-56 -21 -212 -34 -330 -28 -99 6 -100 6 -141 -24 -71
-52 -110 -158 -85 -225 14 -37 33 -38 113 -11 60 20 254 51 264 41 1 -1 -76
-87 -172 -191 -184 -200 -255 -289 -298 -373 -40 -81 -32 -123 24 -123 15 0
82 16 151 35 178 50 257 62 308 46 43 -12 71 -49 71 -92 0 -36 -22 -98 -41
-115 -17 -15 -20 -15 -43 14 -34 39 -88 52 -223 52 -233 0 -697 -82 -1138
-201 -405 -109 -454 -135 -442 -236 4 -37 12 -54 38 -76 56 -51 118 -37 501
112 388 151 732 244 948 258 119 7 149 -5 185 -77 29 -58 48 -70 109 -70 118
0 247 93 313 227 32 65 37 85 37 147 1 116 -52 190 -156 221 -56 16 -173 19
-253 5 -27 -4 -51 -7 -52 -6 -1 1 87 97 195 215 274 297 292 322 278 394 -15
78 -81 112 -161 81z"/>
</g>
</svg>
